PathFileType	4	(X/Y/Z)	FAILT01_SDP01_markers.trc
DataRate	CameraRate	NumFrames	NumMarkers	Units	OrigDataRate	OrigDataStartFrame	OrigNumFrames
100	100	4	59	mm	100	112	446
Frame#	Time	RSH			LSH			C7			LELB			LWR			RELB			RWR			RASI			LASI			SACR			P1			P2			P3			LTHLP			LTHLD			LTHAP			LTHAD			LLEPI			LPAT			LTIAP			LTIAD			LTILAT			LLMAL			LHEEL			LMFS			LMFL			LP5MT			LP1MT			LTOE			RTHLP			RTHLD			RTHAP			RTHAD			RLEPI			RPAT			RTIAP			RTIAD			RTILAT			RLMAL			RHEEL			RMFS			RMFL			RP5MT			RP1MT			RTOE			P4			*46			*47			*48			*49			*50			*51			*52			*53			*54			*55			*56			*57			*58			
		X1	Y1	Z1	X2	Y2	Z2	X3	Y3	Z3	X4	Y4	Z4	X5	Y5	Z5	X6	Y6	Z6	X7	Y7	Z7	X8	Y8	Z8	X9	Y9	Z9	X10	Y10	Z10	X11	Y11	Z11	X12	Y12	Z12	X13	Y13	Z13	X14	Y14	Z14	X15	Y15	Z15	X16	Y16	Z16	X17	Y17	Z17	X18	Y18	Z18	X19	Y19	Z19	X20	Y20	Z20	X21	Y21	Z21	X22	Y22	Z22	X23	Y23	Z23	X24	Y24	Z24	X25	Y25	Z25	X26	Y26	Z26	X27	Y27	Z27	X28	Y28	Z28	X29	Y29	Z29	X30	Y30	Z30	X31	Y31	Z31	X32	Y32	Z32	X33	Y33	Z33	X34	Y34	Z34	X35	Y35	Z35	X36	Y36	Z36	X37	Y37	Z37	X38	Y38	Z38	X39	Y39	Z39	X40	Y40	Z40	X41	Y41	Z41	X42	Y42	Z42	X43	Y43	Z43	X44	Y44	Z44	X45	Y45	Z45	X46	Y46	Z46	X47	Y47	Z47	X48	Y48	Z48	X49	Y49	Z49	X50	Y50	Z50	X51	Y51	Z51	X52	Y52	Z52	X53	Y53	Z53	X54	Y54	Z54	X55	Y55	Z55	X56	Y56	Z56	X57	Y57	Z57	X58	Y58	Z58	X59	Y59	Z59
112	        1.1099998951	     -110.8613312244	     1564.7872686386	      184.1217279434	      163.4894013405	     1588.2643461227	      213.2502645254	       23.8903462887	     1634.4928741455	      139.0256881714	      154.8382043839	     1308.3313703537	      320.4322941601	      -35.6518030167	     1436.2171888351	      305.3688779473	     -114.0325516462	     1343.1608676910	      349.0065559745	      100.5914509296	     1443.7228441238	      332.1152441204	      -75.2636939287	     1126.3196468353	      233.7924093008	      143.3304250240	     1123.1205463409	      227.2351533175	       24.0953564644	     1213.0354642868	       55.7239949703	       76.2722790241	     1213.0422592163	       55.5798411369	      -28.0815362930	     1213.0286693573	       55.8681786060	       27.7074575424	     1152.3720026016	       29.2209386826	      201.3130784035	      897.4373340607	      162.8216207027	      176.8662333488	      797.1072196960	      167.1900600195	      126.6078650951	      904.7678112984	      264.3598914146	      113.2238209248	      802.0043373108	      264.5124271512	      157.5413048267	      668.1981086731	      176.1999130249	       92.6437377930	      674.1500496864	      257.2474032640	       77.9058933258	      500.7078051567	      175.4178255796	       62.1861517429	      397.0351517200	      133.6254179478	      137.6942396164	      455.1622867584	      111.6062104702	       96.7732071877	      284.5107614994	       59.1301620007	       46.6853082180	      249.2478191853	       -5.9556663036	       46.3280081749	      279.3119251728	      142.1297043562	       94.8078036308	      252.3555457592	      113.9618754387	      122.6355731487	      216.6544348001	      160.8201265335	       -1.1708438396	      233.7780743837	      186.3182932138	       32.4615538120	      245.2086806297	      231.5466254950	     -146.6064453125	      922.2367405891	      250.9769797325	     -122.2501546144	      838.2180333138	      306.0664162040	      -30.5260121822	      975.3356575966	      322.3361633718	      -28.1164348125	      888.9436125755	      372.4716864526	      -99.5912998915	      739.8990988731	      361.0978703946	      -24.0107178688	      777.9623866081	      425.2331592143	      -33.9856743813	      559.9088072777	      385.5449492112	      -31.6181182861	      459.5926702023	      366.0809826106	     -103.7693768740	      513.1705999374	      337.3151570559	      -81.7958116531	      336.7730081081	      319.7143264115	      -43.1625247002	      305.4372370243	      255.2460134029	      -33.8638424873	      314.3554925919	      407.8704100102	      -82.8672647476	      294.6031987667	      377.9401136562	     -105.6750416756	      262.5882923603	      427.5171086192	       18.6374783516	      258.1707835197	      442.3326365650	      -20.8264589310	      276.3163149357	      489.3794506788	       26.0119140148	     1230.0680875778	       63.4555220604	       36.2900197506	     1204.5303583145	       27.3348093033	     -300.7080554962	        0.0000000000	      382.1262419224	     -300.7080554962	        0.0000000000	      382.1262419224	     -300.7080554962	        0.0000000000	      382.1262419224	     -300.7080554962	        0.0000000000	      382.1262419224	     -300.7080554962	        0.0000000000	      382.1262419224	     -300.7080554962	        0.0000000000	      382.1262419224	     -300.7080554962	        0.0000000000	      382.1262419224	     -300.7080554962	        0.0000000000	      382.1262419224	     -300.7080554962	        0.0000000000	      382.1262419224	     -300.7080554962	        0.0000000000	      382.1262419224	     -300.7080554962	        0.0000000000	      382.1262419224	     -300.7080554962	        0.0000000000	      382.1262419224
113	        1.1200000048	     -110.8889281750	     1564.7588968277	      187.5343918800	      163.3772552013	     1587.8556966782	      217.5100445747	       23.9913761616	     1634.3996524811	      143.0039107800	      154.1450917721	     1307.6745271683	      323.9403069019	      -36.1085534096	     1435.9409809113	      308.8179379702	     -114.7699654102	     1343.0485725403	      352.2165864706	      100.0353097916	     1443.1333541870	      335.7441127300	      -75.6935924292	     1125.9995698929	      236.5505695343	      142.9024040699	     1122.8353977203	      230.0169467926	       23.8501429558	     1213.1057977676	       58.6900711060	       76.0307908058	     1213.1360769272	       58.5462749004	      -28.3304750919	     1213.0756378174	       58.8338375092	       27.4927616119	     1152.5009870529	       32.0943593979	      200.9530663490	      897.2514867783	      165.2185320854	      176.7064332962	      796.9681024551	      169.1801697016	      125.4259645939	      904.3437838554	      266.3081139326	      112.4966144562	      801.4802336693	      266.1442607641	      157.3915481567	      667.9396033287	      177.4110347033	       92.4496352673	      673.5562682152	      258.5851997137	       77.8326690197	      500.4149675369	      176.1244833469	       62.2040331364	      396.8863785267	      133.9638829231	      137.6553475857	      455.0573825836	      112.1613085270	       96.8452990055	      284.5143079758	       59.1335296631	       46.7294156551	      249.3407130241	       -5.9944689274	       46.4736521244	      279.3598473072	      142.1287357807	       94.8494374752	      252.3682117462	      113.9460504055	      122.6340830326	      216.6362553835	      160.8131676912	       -1.1714100838	      233.7711006403	      186.2922310829	       32.0982038975	      245.3076541424	      231.2009930611	     -146.2619900703	      921.9790101051	      253.7709325552	     -121.4082241058	      837.6842141151	      308.3748519421	      -30.1309823990	      974.9962687492	      324.7463330626	      -26.9770026207	      888.1793022156	      374.2146082222	      -98.4364748001	      739.0643954277	      363.4196370840	      -22.4124789238	      778.2136201859	      426.3639487326	      -31.9389104843	      559.8632097244	      392.9463159293	      -29.1563868523	      458.9427709579	      377.0760740153	     -101.6502082348	      511.1750364304	      346.6331027448	      -78.7298977375	      334.3610167503	      335.2911435068	      -40.4323339462	      301.5163540840	      271.5857923031	      -30.3035378456	      314.3969476223	      423.8785430789	      -79.3009400368	      293.6010658741	      394.7152653709	     -101.5797257423	      262.7715766430	      445.3115984797	       22.8600502014	      259.4783902168	      459.4467282295	      -16.3314640522	      278.6092460155	      506.3162147999	       25.7579386234	     1230.1362752914	       66.4444863796	       35.8635485172	     1204.5847177505	       30.3832590580	     -300.7080554962	        0.0000000000	      382.1262419224	     -300.7080554962	        0.0000000000	      382.1262419224	     -300.7080554962	        0.0000000000	      382.1262419224	     -300.7080554962	        0.0000000000	      382.1262419224	     -300.7080554962	        0.0000000000	      382.1262419224	     -300.7080554962	        0.0000000000	      382.1262419224	     -300.7080554962	        0.0000000000	      382.1262419224	     -300.7080554962	        0.0000000000	      382.1262419224	     -300.7080554962	        0.0000000000	      382.1262419224	     -300.7080554962	        0.0000000000	      382.1262419224	     -300.7080554962	        0.0000000000	      382.1262419224	     -300.7080554962	        0.0000000000	      382.1262419224
114	        1.1299999952	     -110.9880656004	     1564.5434856415	      191.0968720913	      163.1622314453	     1587.2718095779	      221.7669487000	       24.0128338337	     1634.1841220856	      147.1069455147	      153.4176170826	     1306.8288564682	      327.3973092437	      -36.5907549858	     1435.4488849640	      312.3519197106	     -115.5372112989	     1342.7340984344	      355.4694987833	       99.4574129581	     1442.3624277115	      339.4202068448	      -76.1054903269	     1125.4873275757	      239.4953519106	      142.4789428711	     1122.4029064178	      232.8383326530	       23.5690176487	     1213.0801677704	       61.7362260818	       75.7403969765	     1213.1470441818	       61.5621507168	      -28.6023318768	     1213.0131721497	       61.9102418423	       27.2266864777	     1152.5251865387	       35.0532531738	      200.6499171257	      896.9616293907	      167.8790897131	      176.4583587646	      796.6532707214	      171.3645458221	      124.3163347244	      903.6874175072	      268.4441730380	      111.5945279598	      800.8762598038	      268.0066600442	      157.2192013264	      667.6271557808	      178.9144575596	       92.2067165375	      672.8857755661	      260.2211460471	       77.7127444744	      500.0653862953	      176.9853532314	       62.1644854546	      396.7136144638	      134.3999058008	      137.5239193439	      454.9810290337	      112.9696369171	       96.9261527061	      284.4600975513	       59.2737495899	       46.7923879623	      249.4480162859	       -5.9975385666	       45.6944108009	      279.1676521301	      141.9871002436	       94.8752164841	      252.4076104164	      113.9579713345	      122.6355433464	      216.6543304920	      160.8201116323	       -1.4495849609	      233.7858676910	      186.1204504967	       32.0333540440	      245.2629655600	      231.1079800129	     -145.9651738405	      921.5514063835	      256.6706389189	     -120.7045763731	      836.8661999702	      310.5704560876	      -29.5458137989	      974.2745757103	      327.1479941905	      -25.8428454399	      887.0071172714	      375.8795564063	      -97.2774475813	      737.9564046860	      365.5153717846	      -20.7356810570	      778.0346274376	      427.2135756910	      -29.8991799355	      559.6557855606	      400.0293295830	      -26.6721844673	      458.2635760307	      387.7973575145	      -99.5325297117	      509.0769529343	      355.7627629489	      -75.6783932447	      332.1259915829	      350.6814762950	      -37.6796424389	      297.9369461536	      287.6837179065	      -26.6056358814	      314.3980503082	      439.5202398300	      -75.7101774216	      292.7035987377	      411.2539235502	      -97.6332277060	      263.0096077919	      462.6168161631	       26.9881784916	      260.4894936085	      476.0859012604	      -11.9015574455	      280.5650234222	      522.8336900473	       25.4482030869	     1230.0736904144	       69.5534348488	       35.5143249035	     1204.5208215714	       33.5330069065	     -300.7080554962	        0.0000000000	      382.1262419224	     -300.7080554962	        0.0000000000	      382.1262419224	     -300.7080554962	        0.0000000000	      382.1262419224	     -300.7080554962	        0.0000000000	      382.1262419224	     -300.7080554962	        0.0000000000	      382.1262419224	     -300.7080554962	        0.0000000000	      382.1262419224	     -300.7080554962	        0.0000000000	      382.1262419224	     -300.7080554962	        0.0000000000	      382.1262419224	     -300.7080554962	        0.0000000000	      382.1262419224	     -300.7080554962	        0.0000000000	      382.1262419224	     -300.7080554962	        0.0000000000	      382.1262419224	     -300.7080554962	        0.0000000000	      382.1262419224
115	        1.1399999857	     -111.2190335989	     1564.1822814941	      194.7929710150	      162.8805398941	     1586.5286588669	      225.9971201420	       23.8736867905	     1633.8033676147	      151.2507498264	      152.6902019978	     1305.7957887650	      330.8268636465	      -37.1813476086	     1434.7170591354	      315.9587532282	     -116.3123995066	     1342.1388864517	      358.7552048266	       98.8232791424	     1441.3931369781	      343.1319817901	      -76.4407962561	     1124.8441934586	      242.5957769156	      142.1658992767	     1121.9172477722	      235.6036752462	       23.2194364071	     1212.8955125809	       64.8802518845	       75.3905475140	     1213.0095958710	       64.6397471428	      -28.9516150951	     1212.7814292908	       65.1207268238	       26.9000530243	     1152.3964405060	       38.0590558052	      200.3238201141	      896.5333700180	      170.8046644926	      176.2656569481	      796.2500452995	      173.8083809614	      123.2998669147	      902.9282927513	      270.8123549819	      110.5632781982	      800.1710772514	      270.1036259532	      156.9955646992	      667.2090888023	      180.8275133371	       91.8291211128	      672.1911430359	      262.1370628476	       77.4572491646	      499.6784925461	      178.0771166086	       61.9906783104	      396.5017497540	      134.9783092737	      137.2879147530	      454.8352658749	      114.1091883183	       96.9513654709	      284.5029532909	       59.3688488007	       46.7825531960	      249.5966553688	       -5.9780478477	       45.6139445305	      279.2083621025	      142.0233249664	       94.8381721973	      252.4744570255	      113.9750480652	      122.6347684860	      216.6853547096	      160.8180701733	       -1.4677345753	      233.7913513184	      186.1105561256	       31.9495797157	      245.2079057693	      231.0328781605	     -145.7699835300	      920.9440946579	      259.4940438867	     -120.0869977474	      835.8244895935	      312.6973882318	      -28.8314521313	      973.2348918915	      329.5963108540	      -24.6990919113	      885.4631781578	      377.4717110209	      -96.1805731058	      736.5907430649	      367.3333441839	      -19.0458595753	      777.4559855461	      427.7822040021	      -27.8725624084	      559.3124628067	      406.8682566285	      -24.2194533348	      457.5144350529	      398.2040677220	      -97.4936783314	      506.8905353546	      364.6171931177	      -72.6606547832	      330.0108611584	      365.6972050667	      -34.8825156689	      294.5574223995	      303.4732341766	      -22.9757130146	      314.3517971039	      454.8654481769	      -72.1262991428	      291.8031215668	      427.3442476988	      -93.5580283403	      263.1800174713	      479.5542657375	       31.0619771481	      261.2755596638	      492.2225177288	       -7.5537264347	      282.1927964687	      538.7840270996	       25.1044034958	     1229.8786640167	       72.7540254593	       35.2299809456	     1204.3188810349	       36.8038117886	     -300.7080554962	        0.0000000000	      382.1262419224	     -300.7080554962	        0.0000000000	      382.1262419224	     -300.7080554962	        0.0000000000	      382.1262419224	     -300.7080554962	        0.0000000000	      382.1262419224	     -300.7080554962	        0.0000000000	      382.1262419224	     -300.7080554962	        0.0000000000	      382.1262419224	     -300.7080554962	        0.0000000000	      382.1262419224	     -300.7080554962	        0.0000000000	      382.1262419224	     -300.7080554962	        0.0000000000	      382.1262419224	     -300.7080554962	        0.0000000000	      382.1262419224	     -300.7080554962	        0.0000000000	      382.1262419224	     -300.7080554962	        0.0000000000	      382.1262419224
